<svg version="1.1"      baseProfile="full"     width="600" height="400"     xmlns="http://www.w3.org/2000/svg"> 
<rect fill="#2d3c49" width="600" height ="400"/><rect transform="rotate(55 300 200)" fill="none" width="100" height ="100" x="300" y="200"     stroke="rgb(180,75,308)" stroke-width="2px"/><rect transform="rotate(65 300 200)" fill="none" width="100" height ="100" x="300" y="200"     stroke="rgb(170,85,298)" stroke-width="2px"/><rect transform="rotate(75 300 200)" fill="none" width="100" height ="100" x="300" y="200"     stroke="rgb(160,95,288)" stroke-width="2px"/><rect transform="rotate(85 300 200)" fill="none" width="100" height ="100" x="300" y="200"     stroke="rgb(150,105,278)" stroke-width="2px"/><rect transform="rotate(95 300 200)" fill="none" width="100" height ="100" x="300" y="200"     stroke="rgb(140,115,268)" stroke-width="2px"/><rect transform="rotate(105 300 200)" fill="none" width="100" height ="100" x="300" y="200"     stroke="rgb(130,125,258)" stroke-width="2px"/><rect transform="rotate(115 300 200)" fill="none" width="100" height ="100" x="300" y="200"     stroke="rgb(120,135,248)" stroke-width="2px"/><rect transform="rotate(125 300 200)" fill="none" width="100" height ="100" x="300" y="200"     stroke="rgb(110,145,238)" stroke-width="2px"/><rect transform="rotate(135 300 200)" fill="none" width="100" height ="100" x="300" y="200"     stroke="rgb(100,155,228)" stroke-width="2px"/><rect transform="rotate(145 300 200)" fill="none" width="100" height ="100" x="300" y="200"     stroke="rgb(90,165,218)" stroke-width="2px"/><rect transform="rotate(155 300 200)" fill="none" width="100" height ="100" x="300" y="200"     stroke="rgb(80,175,208)" stroke-width="2px"/><rect transform="rotate(165 300 200)" fill="none" width="100" height ="100" x="300" y="200"     stroke="rgb(70,185,198)" stroke-width="2px"/><rect transform="rotate(175 300 200)" fill="none" width="100" height ="100" x="300" y="200"     stroke="rgb(60,195,188)" stroke-width="2px"/><rect transform="rotate(185 300 200)" fill="none" width="100" height ="100" x="300" y="200"     stroke="rgb(50,205,178)" stroke-width="2px"/><rect transform="rotate(195 300 200)" fill="none" width="100" height ="100" x="300" y="200"     stroke="rgb(40,215,168)" stroke-width="2px"/><rect transform="rotate(205 300 200)" fill="none" width="100" height ="100" x="300" y="200"     stroke="rgb(30,225,158)" stroke-width="2px"/><rect transform="rotate(215 300 200)" fill="none" width="100" height ="100" x="300" y="200"     stroke="rgb(20,235,148)" stroke-width="2px"/><rect transform="rotate(225 300 200)" fill="none" width="100" height ="100" x="300" y="200"     stroke="rgb(10,245,138)" stroke-width="2px"/><rect transform="rotate(235 300 200)" fill="none" width="100" height ="100" x="300" y="200"     stroke="rgb(0,255,128)" stroke-width="2px"/><rect transform="rotate(245 300 200)" fill="none" width="100" height ="100" x="300" y="200"     stroke="rgb(10,245,138)" stroke-width="2px"/><rect transform="rotate(255 300 200)" fill="none" width="100" height ="100" x="300" y="200"     stroke="rgb(20,235,148)" stroke-width="2px"/><rect transform="rotate(265 300 200)" fill="none" width="100" height ="100" x="300" y="200"     stroke="rgb(30,225,158)" stroke-width="2px"/><rect transform="rotate(275 300 200)" fill="none" width="100" height ="100" x="300" y="200"     stroke="rgb(40,215,168)" stroke-width="2px"/><rect transform="rotate(285 300 200)" fill="none" width="100" height ="100" x="300" y="200"     stroke="rgb(50,205,178)" stroke-width="2px"/><rect transform="rotate(295 300 200)" fill="none" width="100" height ="100" x="300" y="200"     stroke="rgb(60,195,188)" stroke-width="2px"/><rect transform="rotate(305 300 200)" fill="none" width="100" height ="100" x="300" y="200"     stroke="rgb(70,185,198)" stroke-width="2px"/><rect transform="rotate(315 300 200)" fill="none" width="100" height ="100" x="300" y="200"     stroke="rgb(80,175,208)" stroke-width="2px"/><rect transform="rotate(325 300 200)" fill="none" width="100" height ="100" x="300" y="200"     stroke="rgb(90,165,218)" stroke-width="2px"/><rect transform="rotate(335 300 200)" fill="none" width="100" height ="100" x="300" y="200"     stroke="rgb(100,155,228)" stroke-width="2px"/><rect transform="rotate(345 300 200)" fill="none" width="100" height ="100" x="300" y="200"     stroke="rgb(110,145,238)" stroke-width="2px"/><rect transform="rotate(355 300 200)" fill="none" width="100" height ="100" x="300" y="200"     stroke="rgb(120,135,248)" stroke-width="2px"/><rect transform="rotate(365 300 200)" fill="none" width="100" height ="100" x="300" y="200"     stroke="rgb(130,125,258)" stroke-width="2px"/><rect transform="rotate(375 300 200)" fill="none" width="100" height ="100" x="300" y="200"     stroke="rgb(140,115,268)" stroke-width="2px"/><rect transform="rotate(385 300 200)" fill="none" width="100" height ="100" x="300" y="200"     stroke="rgb(150,105,278)" stroke-width="2px"/><rect transform="rotate(395 300 200)" fill="none" width="100" height ="100" x="300" y="200"     stroke="rgb(160,95,288)" stroke-width="2px"/><rect transform="rotate(405 300 200)" fill="none" width="100" height ="100" x="300" y="200"     stroke="rgb(170,85,298)" stroke-width="2px"/></svg>