<svg version="1.1"      baseProfile="full"     width="600" height="400"     xmlns="http://www.w3.org/2000/svg"> 
<rect fill="#2d3c49" width="600" height ="400"/><rect fill="none" width="100" height ="100" x="300" y="200" stroke="#02b3e4" stroke-width="2px"/><rect transform="rotate(10 300 200)" fill="none" width="100" height ="100" x="300" y="200"     stroke="rgb(10,245,138)" stroke-width="2px"/><rect transform="rotate(20 300 200)" fill="none" width="100" height ="100" x="300" y="200"     stroke="rgb(20,235,148)" stroke-width="2px"/><rect transform="rotate(30 300 200)" fill="none" width="100" height ="100" x="300" y="200"     stroke="rgb(30,225,158)" stroke-width="2px"/><rect transform="rotate(40 300 200)" fill="none" width="100" height ="100" x="300" y="200"     stroke="rgb(40,215,168)" stroke-width="2px"/><rect transform="rotate(50 300 200)" fill="none" width="100" height ="100" x="300" y="200"     stroke="rgb(50,205,178)" stroke-width="2px"/><rect transform="rotate(60 300 200)" fill="none" width="100" height ="100" x="300" y="200"     stroke="rgb(60,195,188)" stroke-width="2px"/><rect transform="rotate(70 300 200)" fill="none" width="100" height ="100" x="300" y="200"     stroke="rgb(70,185,198)" stroke-width="2px"/><rect transform="rotate(80 300 200)" fill="none" width="100" height ="100" x="300" y="200"     stroke="rgb(80,175,208)" stroke-width="2px"/><rect transform="rotate(90 300 200)" fill="none" width="100" height ="100" x="300" y="200"     stroke="rgb(90,165,218)" stroke-width="2px"/><rect transform="rotate(100 300 200)" fill="none" width="100" height ="100" x="300" y="200"     stroke="rgb(100,155,228)" stroke-width="2px"/><rect transform="rotate(110 300 200)" fill="none" width="100" height ="100" x="300" y="200"     stroke="rgb(110,145,238)" stroke-width="2px"/><rect transform="rotate(120 300 200)" fill="none" width="100" height ="100" x="300" y="200"     stroke="rgb(120,135,248)" stroke-width="2px"/><rect transform="rotate(130 300 200)" fill="none" width="100" height ="100" x="300" y="200"     stroke="rgb(130,125,258)" stroke-width="2px"/><rect transform="rotate(140 300 200)" fill="none" width="100" height ="100" x="300" y="200"     stroke="rgb(140,115,268)" stroke-width="2px"/><rect transform="rotate(150 300 200)" fill="none" width="100" height ="100" x="300" y="200"     stroke="rgb(150,105,278)" stroke-width="2px"/><rect transform="rotate(160 300 200)" fill="none" width="100" height ="100" x="300" y="200"     stroke="rgb(160,95,288)" stroke-width="2px"/><rect transform="rotate(170 300 200)" fill="none" width="100" height ="100" x="300" y="200"     stroke="rgb(170,85,298)" stroke-width="2px"/><rect transform="rotate(180 300 200)" fill="none" width="100" height ="100" x="300" y="200"     stroke="rgb(180,75,308)" stroke-width="2px"/><rect transform="rotate(190 300 200)" fill="none" width="100" height ="100" x="300" y="200"     stroke="rgb(190,65,318)" stroke-width="2px"/><rect transform="rotate(200 300 200)" fill="none" width="100" height ="100" x="300" y="200"     stroke="rgb(200,55,328)" stroke-width="2px"/><rect transform="rotate(210 300 200)" fill="none" width="100" height ="100" x="300" y="200"     stroke="rgb(210,45,338)" stroke-width="2px"/><rect transform="rotate(220 300 200)" fill="none" width="100" height ="100" x="300" y="200"     stroke="rgb(220,35,348)" stroke-width="2px"/><rect transform="rotate(230 300 200)" fill="none" width="100" height ="100" x="300" y="200"     stroke="rgb(230,25,358)" stroke-width="2px"/><rect transform="rotate(240 300 200)" fill="none" width="100" height ="100" x="300" y="200"     stroke="rgb(240,15,368)" stroke-width="2px"/><rect transform="rotate(250 300 200)" fill="none" width="100" height ="100" x="300" y="200"     stroke="rgb(250,5,378)" stroke-width="2px"/><rect transform="rotate(260 300 200)" fill="none" width="100" height ="100" x="300" y="200"     stroke="rgb(260,-5,388)" stroke-width="2px"/><rect transform="rotate(270 300 200)" fill="none" width="100" height ="100" x="300" y="200"     stroke="rgb(270,-15,398)" stroke-width="2px"/><rect transform="rotate(280 300 200)" fill="none" width="100" height ="100" x="300" y="200"     stroke="rgb(280,-25,408)" stroke-width="2px"/><rect transform="rotate(290 300 200)" fill="none" width="100" height ="100" x="300" y="200"     stroke="rgb(290,-35,418)" stroke-width="2px"/><rect transform="rotate(300 300 200)" fill="none" width="100" height ="100" x="300" y="200"     stroke="rgb(300,-45,428)" stroke-width="2px"/><rect transform="rotate(310 300 200)" fill="none" width="100" height ="100" x="300" y="200"     stroke="rgb(310,-55,438)" stroke-width="2px"/><rect transform="rotate(320 300 200)" fill="none" width="100" height ="100" x="300" y="200"     stroke="rgb(320,-65,448)" stroke-width="2px"/><rect transform="rotate(330 300 200)" fill="none" width="100" height ="100" x="300" y="200"     stroke="rgb(330,-75,458)" stroke-width="2px"/><rect transform="rotate(340 300 200)" fill="none" width="100" height ="100" x="300" y="200"     stroke="rgb(340,-85,468)" stroke-width="2px"/><rect transform="rotate(350 300 200)" fill="none" width="100" height ="100" x="300" y="200"     stroke="rgb(350,-95,478)" stroke-width="2px"/></svg>