<svg version="1.1"      baseProfile="full"     width="600" height="400"     xmlns="http://www.w3.org/2000/svg"> 
<line x1="0" y1="400" x2="0" y2="0" stroke="black" stroke-width="5"/><line x1="0" y1="400" x2="600" y2="400" stroke="black" stroke-width="5"/><rect x="10" y="359" width="30" height="41" fill="#7d97ad"/><circle cx="25" cy="115" r="6" fill="#2d3c49"/><circle cx="25" cy="115" r="3" fill="#02b3e4"/><line x1="25" y1="115" x2="55" y2="112" stroke="#7d97ad" stroke-width="5"/><rect x="40" y="336" width="30" height="64" fill="#7d97ad"/><circle cx="55" cy="112" r="6" fill="#2d3c49"/><circle cx="55" cy="112" r="3" fill="#02b3e4"/><line x1="55" y1="112" x2="85" y2="183" stroke="#7d97ad" stroke-width="5"/><rect x="70" y="350" width="30" height="50" fill="#7d97ad"/><circle cx="85" cy="183" r="6" fill="#2d3c49"/><circle cx="85" cy="183" r="3" fill="#02b3e4"/><line x1="85" y1="183" x2="115" y2="170" stroke="#7d97ad" stroke-width="5"/><rect x="100" y="323" width="30" height="77" fill="#7d97ad"/><circle cx="115" cy="170" r="6" fill="#2d3c49"/><circle cx="115" cy="170" r="3" fill="#02b3e4"/><line x1="115" y1="170" x2="145" y2="92" stroke="#7d97ad" stroke-width="5"/><rect x="130" y="336" width="30" height="64" fill="#7d97ad"/><circle cx="145" cy="92" r="6" fill="#2d3c49"/><circle cx="145" cy="92" r="3" fill="#02b3e4"/><line x1="145" y1="92" x2="175" y2="120" stroke="#7d97ad" stroke-width="5"/><rect x="160" y="349" width="30" height="51" fill="#7d97ad"/><circle cx="175" cy="120" r="6" fill="#2d3c49"/><circle cx="175" cy="120" r="3" fill="#02b3e4"/><line x1="175" y1="120" x2="205" y2="90" stroke="#7d97ad" stroke-width="5"/><rect x="190" y="345" width="30" height="55" fill="#7d97ad"/><circle cx="205" cy="90" r="6" fill="#2d3c49"/><circle cx="205" cy="90" r="3" fill="#02b3e4"/><line x1="205" y1="90" x2="235" y2="100" stroke="#7d97ad" stroke-width="5"/><rect x="220" y="358" width="30" height="42" fill="#7d97ad"/><circle cx="235" cy="100" r="6" fill="#2d3c49"/><circle cx="235" cy="100" r="3" fill="#02b3e4"/><line x1="235" y1="100" x2="265" y2="158" stroke="#7d97ad" stroke-width="5"/><rect x="250" y="354" width="30" height="46" fill="#7d97ad"/><circle cx="265" cy="158" r="6" fill="#2d3c49"/><circle cx="265" cy="158" r="3" fill="#02b3e4"/><line x1="265" y1="158" x2="295" y2="153" stroke="#7d97ad" stroke-width="5"/><rect x="280" y="331" width="30" height="69" fill="#7d97ad"/><circle cx="295" cy="153" r="6" fill="#2d3c49"/><circle cx="295" cy="153" r="3" fill="#02b3e4"/><line x1="295" y1="153" x2="325" y2="137" stroke="#7d97ad" stroke-width="5"/><rect x="310" y="365" width="30" height="35" fill="#7d97ad"/><circle cx="325" cy="137" r="6" fill="#2d3c49"/><circle cx="325" cy="137" r="3" fill="#02b3e4"/><line x1="325" y1="137" x2="355" y2="159" stroke="#7d97ad" stroke-width="5"/><rect x="340" y="361" width="30" height="39" fill="#7d97ad"/><circle cx="355" cy="159" r="6" fill="#2d3c49"/><circle cx="355" cy="159" r="3" fill="#02b3e4"/><line x1="355" y1="159" x2="385" y2="66" stroke="#7d97ad" stroke-width="5"/><rect x="370" y="339" width="30" height="61" fill="#7d97ad"/><circle cx="385" cy="66" r="6" fill="#2d3c49"/><circle cx="385" cy="66" r="3" fill="#02b3e4"/><line x1="385" y1="66" x2="415" y2="183" stroke="#7d97ad" stroke-width="5"/><rect x="400" y="318" width="30" height="82" fill="#7d97ad"/><circle cx="415" cy="183" r="6" fill="#2d3c49"/><circle cx="415" cy="183" r="3" fill="#02b3e4"/><line x1="415" y1="183" x2="445" y2="117" stroke="#7d97ad" stroke-width="5"/><rect x="430" y="370" width="30" height="30" fill="#7d97ad"/><circle cx="445" cy="117" r="6" fill="#2d3c49"/><circle cx="445" cy="117" r="3" fill="#02b3e4"/><line x1="445" y1="117" x2="475" y2="163" stroke="#7d97ad" stroke-width="5"/><rect x="460" y="339" width="30" height="61" fill="#7d97ad"/><circle cx="475" cy="163" r="6" fill="#2d3c49"/><circle cx="475" cy="163" r="3" fill="#02b3e4"/><line x1="475" y1="163" x2="505" y2="107" stroke="#7d97ad" stroke-width="5"/><rect x="490" y="339" width="30" height="61" fill="#7d97ad"/><circle cx="505" cy="107" r="6" fill="#2d3c49"/><circle cx="505" cy="107" r="3" fill="#02b3e4"/><line x1="505" y1="107" x2="535" y2="99" stroke="#7d97ad" stroke-width="5"/><rect x="520" y="328" width="30" height="72" fill="#7d97ad"/><circle cx="535" cy="99" r="6" fill="#2d3c49"/><circle cx="535" cy="99" r="3" fill="#02b3e4"/><line x1="535" y1="99" x2="565" y2="119" stroke="#7d97ad" stroke-width="5"/><rect x="550" y="337" width="30" height="63" fill="#7d97ad"/></svg>