<svg version="1.1"      baseProfile="full"     width="600" height="400"     xmlns="http://www.w3.org/2000/svg"> 
<polygon points="0,400 300,0 600,400" fill="#2d3c49" />
<polygon points="290.625,12.5 300,25.0 309.375,12.5" fill="#02b3e4"/>
<polygon points="271.875,37.5 281.25,50.0 290.625,37.5" fill="#02b3e4"/>
<polygon points="309.375,37.5 318.75,50.0 328.125,37.5" fill="#02b3e4"/>
<polygon points="281.25,25.0 300,50.0 318.75,25.0" fill="#02b3e4"/>
<polygon points="253.125,62.5 262.5,75.0 271.875,62.5" fill="#02b3e4"/>
<polygon points="234.375,87.5 243.75,100.0 253.125,87.5" fill="#02b3e4"/>
<polygon points="271.875,87.5 281.25,100.0 290.625,87.5" fill="#02b3e4"/>
<polygon points="243.75,75.0 262.5,100.0 281.25,75.0" fill="#02b3e4"/>
<polygon points="328.125,62.5 337.5,75.0 346.875,62.5" fill="#02b3e4"/>
<polygon points="309.375,87.5 318.75,100.0 328.125,87.5" fill="#02b3e4"/>
<polygon points="346.875,87.5 356.25,100.0 365.625,87.5" fill="#02b3e4"/>
<polygon points="318.75,75.0 337.5,100.0 356.25,75.0" fill="#02b3e4"/>
<polygon points="262.5,50.0 300,100.0 337.5,50.0" fill="#02b3e4"/>
<polygon points="215.625,112.5 225.0,125.0 234.375,112.5" fill="#02b3e4"/>
<polygon points="196.875,137.5 206.25,150.0 215.625,137.5" fill="#02b3e4"/>
<polygon points="234.375,137.5 243.75,150.0 253.125,137.5" fill="#02b3e4"/>
<polygon points="206.25,125.0 225.0,150.0 243.75,125.0" fill="#02b3e4"/>
<polygon points="178.125,162.5 187.5,175.0 196.875,162.5" fill="#02b3e4"/>
<polygon points="159.375,187.5 168.75,200.0 178.125,187.5" fill="#02b3e4"/>
<polygon points="196.875,187.5 206.25,200.0 215.625,187.5" fill="#02b3e4"/>
<polygon points="168.75,175.0 187.5,200.0 206.25,175.0" fill="#02b3e4"/>
<polygon points="253.125,162.5 262.5,175.0 271.875,162.5" fill="#02b3e4"/>
<polygon points="234.375,187.5 243.75,200.0 253.125,187.5" fill="#02b3e4"/>
<polygon points="271.875,187.5 281.25,200.0 290.625,187.5" fill="#02b3e4"/>
<polygon points="243.75,175.0 262.5,200.0 281.25,175.0" fill="#02b3e4"/>
<polygon points="187.5,150.0 225.0,200.0 262.5,150.0" fill="#02b3e4"/>
<polygon points="365.625,112.5 375.0,125.0 384.375,112.5" fill="#02b3e4"/>
<polygon points="346.875,137.5 356.25,150.0 365.625,137.5" fill="#02b3e4"/>
<polygon points="384.375,137.5 393.75,150.0 403.125,137.5" fill="#02b3e4"/>
<polygon points="356.25,125.0 375.0,150.0 393.75,125.0" fill="#02b3e4"/>
<polygon points="328.125,162.5 337.5,175.0 346.875,162.5" fill="#02b3e4"/>
<polygon points="309.375,187.5 318.75,200.0 328.125,187.5" fill="#02b3e4"/>
<polygon points="346.875,187.5 356.25,200.0 365.625,187.5" fill="#02b3e4"/>
<polygon points="318.75,175.0 337.5,200.0 356.25,175.0" fill="#02b3e4"/>
<polygon points="403.125,162.5 412.5,175.0 421.875,162.5" fill="#02b3e4"/>
<polygon points="384.375,187.5 393.75,200.0 403.125,187.5" fill="#02b3e4"/>
<polygon points="421.875,187.5 431.25,200.0 440.625,187.5" fill="#02b3e4"/>
<polygon points="393.75,175.0 412.5,200.0 431.25,175.0" fill="#02b3e4"/>
<polygon points="337.5,150.0 375.0,200.0 412.5,150.0" fill="#02b3e4"/>
<polygon points="225.0,100.0 300,200.0 375.0,100.0" fill="#02b3e4"/>
<polygon points="140.625,212.5 150.0,225.0 159.375,212.5" fill="#02b3e4"/>
<polygon points="121.875,237.5 131.25,250.0 140.625,237.5" fill="#02b3e4"/>
<polygon points="159.375,237.5 168.75,250.0 178.125,237.5" fill="#02b3e4"/>
<polygon points="131.25,225.0 150.0,250.0 168.75,225.0" fill="#02b3e4"/>
<polygon points="103.125,262.5 112.5,275.0 121.875,262.5" fill="#02b3e4"/>
<polygon points="84.375,287.5 93.75,300.0 103.125,287.5" fill="#02b3e4"/>
<polygon points="121.875,287.5 131.25,300.0 140.625,287.5" fill="#02b3e4"/>
<polygon points="93.75,275.0 112.5,300.0 131.25,275.0" fill="#02b3e4"/>
<polygon points="178.125,262.5 187.5,275.0 196.875,262.5" fill="#02b3e4"/>
<polygon points="159.375,287.5 168.75,300.0 178.125,287.5" fill="#02b3e4"/>
<polygon points="196.875,287.5 206.25,300.0 215.625,287.5" fill="#02b3e4"/>
<polygon points="168.75,275.0 187.5,300.0 206.25,275.0" fill="#02b3e4"/>
<polygon points="112.5,250.0 150.0,300.0 187.5,250.0" fill="#02b3e4"/>
<polygon points="65.625,312.5 75.0,325.0 84.375,312.5" fill="#02b3e4"/>
<polygon points="46.875,337.5 56.25,350.0 65.625,337.5" fill="#02b3e4"/>
<polygon points="84.375,337.5 93.75,350.0 103.125,337.5" fill="#02b3e4"/>
<polygon points="56.25,325.0 75.0,350.0 93.75,325.0" fill="#02b3e4"/>
<polygon points="28.125,362.5 37.5,375.0 46.875,362.5" fill="#02b3e4"/>
<polygon points="9.375,387.5 18.75,400 28.125,387.5" fill="#02b3e4"/>
<polygon points="46.875,387.5 56.25,400 65.625,387.5" fill="#02b3e4"/>
<polygon points="18.75,375.0 37.5,400 56.25,375.0" fill="#02b3e4"/>
<polygon points="103.125,362.5 112.5,375.0 121.875,362.5" fill="#02b3e4"/>
<polygon points="84.375,387.5 93.75,400 103.125,387.5" fill="#02b3e4"/>
<polygon points="121.875,387.5 131.25,400 140.625,387.5" fill="#02b3e4"/>
<polygon points="93.75,375.0 112.5,400 131.25,375.0" fill="#02b3e4"/>
<polygon points="37.5,350.0 75.0,400 112.5,350.0" fill="#02b3e4"/>
<polygon points="215.625,312.5 225.0,325.0 234.375,312.5" fill="#02b3e4"/>
<polygon points="196.875,337.5 206.25,350.0 215.625,337.5" fill="#02b3e4"/>
<polygon points="234.375,337.5 243.75,350.0 253.125,337.5" fill="#02b3e4"/>
<polygon points="206.25,325.0 225.0,350.0 243.75,325.0" fill="#02b3e4"/>
<polygon points="178.125,362.5 187.5,375.0 196.875,362.5" fill="#02b3e4"/>
<polygon points="159.375,387.5 168.75,400 178.125,387.5" fill="#02b3e4"/>
<polygon points="196.875,387.5 206.25,400 215.625,387.5" fill="#02b3e4"/>
<polygon points="168.75,375.0 187.5,400 206.25,375.0" fill="#02b3e4"/>
<polygon points="253.125,362.5 262.5,375.0 271.875,362.5" fill="#02b3e4"/>
<polygon points="234.375,387.5 243.75,400 253.125,387.5" fill="#02b3e4"/>
<polygon points="271.875,387.5 281.25,400 290.625,387.5" fill="#02b3e4"/>
<polygon points="243.75,375.0 262.5,400 281.25,375.0" fill="#02b3e4"/>
<polygon points="187.5,350.0 225.0,400 262.5,350.0" fill="#02b3e4"/>
<polygon points="75.0,300.0 150.0,400 225.0,300.0" fill="#02b3e4"/>
<polygon points="440.625,212.5 450.0,225.0 459.375,212.5" fill="#02b3e4"/>
<polygon points="421.875,237.5 431.25,250.0 440.625,237.5" fill="#02b3e4"/>
<polygon points="459.375,237.5 468.75,250.0 478.125,237.5" fill="#02b3e4"/>
<polygon points="431.25,225.0 450.0,250.0 468.75,225.0" fill="#02b3e4"/>
<polygon points="403.125,262.5 412.5,275.0 421.875,262.5" fill="#02b3e4"/>
<polygon points="384.375,287.5 393.75,300.0 403.125,287.5" fill="#02b3e4"/>
<polygon points="421.875,287.5 431.25,300.0 440.625,287.5" fill="#02b3e4"/>
<polygon points="393.75,275.0 412.5,300.0 431.25,275.0" fill="#02b3e4"/>
<polygon points="478.125,262.5 487.5,275.0 496.875,262.5" fill="#02b3e4"/>
<polygon points="459.375,287.5 468.75,300.0 478.125,287.5" fill="#02b3e4"/>
<polygon points="496.875,287.5 506.25,300.0 515.625,287.5" fill="#02b3e4"/>
<polygon points="468.75,275.0 487.5,300.0 506.25,275.0" fill="#02b3e4"/>
<polygon points="412.5,250.0 450.0,300.0 487.5,250.0" fill="#02b3e4"/>
<polygon points="365.625,312.5 375.0,325.0 384.375,312.5" fill="#02b3e4"/>
<polygon points="346.875,337.5 356.25,350.0 365.625,337.5" fill="#02b3e4"/>
<polygon points="384.375,337.5 393.75,350.0 403.125,337.5" fill="#02b3e4"/>
<polygon points="356.25,325.0 375.0,350.0 393.75,325.0" fill="#02b3e4"/>
<polygon points="328.125,362.5 337.5,375.0 346.875,362.5" fill="#02b3e4"/>
<polygon points="309.375,387.5 318.75,400 328.125,387.5" fill="#02b3e4"/>
<polygon points="346.875,387.5 356.25,400 365.625,387.5" fill="#02b3e4"/>
<polygon points="318.75,375.0 337.5,400 356.25,375.0" fill="#02b3e4"/>
<polygon points="403.125,362.5 412.5,375.0 421.875,362.5" fill="#02b3e4"/>
<polygon points="384.375,387.5 393.75,400 403.125,387.5" fill="#02b3e4"/>
<polygon points="421.875,387.5 431.25,400 440.625,387.5" fill="#02b3e4"/>
<polygon points="393.75,375.0 412.5,400 431.25,375.0" fill="#02b3e4"/>
<polygon points="337.5,350.0 375.0,400 412.5,350.0" fill="#02b3e4"/>
<polygon points="515.625,312.5 525.0,325.0 534.375,312.5" fill="#02b3e4"/>
<polygon points="496.875,337.5 506.25,350.0 515.625,337.5" fill="#02b3e4"/>
<polygon points="534.375,337.5 543.75,350.0 553.125,337.5" fill="#02b3e4"/>
<polygon points="506.25,325.0 525.0,350.0 543.75,325.0" fill="#02b3e4"/>
<polygon points="478.125,362.5 487.5,375.0 496.875,362.5" fill="#02b3e4"/>
<polygon points="459.375,387.5 468.75,400 478.125,387.5" fill="#02b3e4"/>
<polygon points="496.875,387.5 506.25,400 515.625,387.5" fill="#02b3e4"/>
<polygon points="468.75,375.0 487.5,400 506.25,375.0" fill="#02b3e4"/>
<polygon points="553.125,362.5 562.5,375.0 571.875,362.5" fill="#02b3e4"/>
<polygon points="534.375,387.5 543.75,400 553.125,387.5" fill="#02b3e4"/>
<polygon points="571.875,387.5 581.25,400 590.625,387.5" fill="#02b3e4"/>
<polygon points="543.75,375.0 562.5,400 581.25,375.0" fill="#02b3e4"/>
<polygon points="487.5,350.0 525.0,400 562.5,350.0" fill="#02b3e4"/>
<polygon points="375.0,300.0 450.0,400 525.0,300.0" fill="#02b3e4"/>
<polygon points="150.0,200.0 300,400 450.0,200.0" fill="#02b3e4"/>
</svg>